<svg width="48" height="38" viewBox="0 0 48 38" fill="none" xmlns="http://www.w3.org/2000/svg">
<ellipse cx="24" cy="19" rx="24" ry="19" fill="#740000"/>
<g clip-path="url(#clip0_88_16)">
<path d="M31.2013 10.664C31.9888 10.2687 32.8637 10.0624 33.7475 10.0624H36.2588C37.44 10.0624 38.2581 11.2204 37.8425 12.3054C37.0463 14.398 35.4669 16.1167 33.4325 17.1179L21.4975 22.9788C21.3006 23.0734 21.0862 23.1249 20.8675 23.1249H14.8431C14.4362 23.1249 14.0469 22.9487 13.7809 22.6437L10.5836 18.9827C10.2871 18.6433 10.3946 18.1191 10.8019 17.9171L12.2089 17.2296C12.5834 17.0448 13.0214 17.032 13.4038 17.1995L15.9106 18.2738L20.2638 16.1511L13.8342 12.0905C13.3779 11.8022 13.4147 11.1358 13.8999 10.8973L15.9062 9.91117C16.5669 9.56914 17.4156 9.52746 18.1419 9.79602L26.6687 12.937L31.2013 10.664ZM10 28.6249C10 27.8644 10.6269 27.2499 11.4 27.2499H36.6C37.3744 27.2499 38 27.8644 38 28.6249C38 29.3855 37.3744 29.9999 36.6 29.9999H11.4C10.6269 29.9999 10 29.3855 10 28.6249Z" fill="white"/>
</g>
<defs>
<clipPath id="clip0_88_16">
<rect width="28" height="22" fill="white" transform="translate(10 8)"/>
</clipPath>
</defs>
</svg>
