<svg width="48" height="38" viewBox="0 0 48 38" fill="none" xmlns="http://www.w3.org/2000/svg">
<ellipse cx="24" cy="19" rx="24" ry="19" fill="#00145B"/>
<g clip-path="url(#clip0_88_17)">
<path d="M37.9738 25.6313C37.6074 24.756 36.5847 24.3371 35.6935 24.7023L34.7257 25.0997L33.0304 20.7556C35.1248 19.2903 35.8685 16.4501 34.5398 14.1943L30.7502 7.72745C30.4002 7.13148 29.6958 6.87882 29.0396 7.14222L24.0433 9.17765L19.0037 7.10381C18.3475 6.84062 17.6037 7.09306 17.2537 7.68926L13.4628 14.1543C12.1394 16.4102 12.8779 19.2161 14.97 20.7157L13.2747 25.0942L12.3091 24.6989C11.4179 24.3337 10.4008 24.7526 10.0289 25.6278C9.95231 25.8051 10.0343 26.0038 10.2148 26.079L17.3198 28.9738C17.4554 29.049 17.6971 28.9685 17.7735 28.7913C18.1399 27.916 17.7188 26.9062 16.8276 26.541L15.8599 26.1489L17.5823 21.6974C17.7792 21.7188 17.9705 21.7511 18.1563 21.7511C20.4204 21.7511 22.5037 20.3718 23.1176 18.0884L24.0035 14.8503L24.8894 18.0884C25.4626 20.3331 27.5853 21.7511 29.8507 21.7511C30.0366 21.7511 30.228 21.7189 30.4247 21.6974L32.1419 26.1489L31.1741 26.541C30.2829 26.9062 29.8564 27.8773 30.2282 28.7913C30.3048 28.9685 30.5126 29.049 30.6876 28.9738L37.7926 26.079C37.9606 26.0008 38.0481 25.8075 37.9738 25.6313ZM22.0706 13.9653L17.1662 11.9672L18.7631 9.24429L22.8975 10.9274L22.0706 13.9653ZM25.9294 13.9653L25.1038 10.9257L29.2377 9.24472L30.8346 11.9677L25.9294 13.9653Z" fill="white"/>
</g>
<defs>
<clipPath id="clip0_88_17">
<rect width="28" height="22" fill="white" transform="translate(10 7)"/>
</clipPath>
</defs>
</svg>
