<svg width="48" height="38" viewBox="0 0 48 38" fill="none" xmlns="http://www.w3.org/2000/svg">
<path d="M48 19C48 29.4934 37.2548 38 24 38C10.7452 38 0 29.4934 0 19C0 8.50659 10.7452 0 24 0C37.2548 0 48 8.50659 48 19Z" fill="#00165E"/>
<g clip-path="url(#clip0_88_12)">
<path d="M31 16.25H35.9C37.0594 16.25 38 17.1738 38 18.3125V27.9375C38 29.0762 37.0594 30 35.9 30H12.1C10.9402 30 10 29.0762 10 27.9375V14.1875C10 13.0488 10.9402 12.125 12.1 12.125H12.8V9.03125C12.8 8.46191 13.2703 8 13.85 8C14.4319 8 14.9 8.46191 14.9 9.03125V12.125H17.7V9.03125C17.7 8.46191 18.1681 8 18.75 8C19.3319 8 19.8 8.46191 19.8 9.03125V12.125H22.6V10.0625C22.6 8.9234 23.5406 8 24.7 8H28.9C30.0594 8 31 8.9234 31 10.0625V16.25ZM35.2 23.8125C35.2 23.4344 34.885 23.125 34.5 23.125H33.1C32.715 23.125 32.4 23.4344 32.4 23.8125V25.1875C32.4 25.5656 32.715 25.875 33.1 25.875H34.5C34.885 25.875 35.2 25.5656 35.2 25.1875V23.8125ZM20.5 25.875C20.885 25.875 21.2 25.5656 21.2 25.1875V23.8125C21.2 23.4344 20.885 23.125 20.5 23.125H19.1C18.715 23.125 18.4 23.4344 18.4 23.8125V25.1875C18.4 25.5656 18.715 25.875 19.1 25.875H20.5ZM15.6 23.8125C15.6 23.4344 15.285 23.125 14.9 23.125H13.5C13.1133 23.125 12.8 23.4344 12.8 23.8125V25.1875C12.8 25.5656 13.1133 25.875 13.5 25.875H14.9C15.285 25.875 15.6 25.5656 15.6 25.1875V23.8125ZM33.1 19C32.715 19 32.4 19.3094 32.4 19.6875V21.0625C32.4 21.4406 32.715 21.75 33.1 21.75H34.5C34.885 21.75 35.2 21.4406 35.2 21.0625V19.6875C35.2 19.3094 34.885 19 34.5 19H33.1ZM21.2 15.5625C21.2 15.1844 20.885 14.875 20.5 14.875H19.1C18.715 14.875 18.4 15.1844 18.4 15.5625V16.9375C18.4 17.3156 18.715 17.625 19.1 17.625H20.5C20.885 17.625 21.2 17.3156 21.2 16.9375V15.5625ZM13.5 14.875C13.1133 14.875 12.8 15.1844 12.8 15.5625V16.9375C12.8 17.3156 13.1133 17.625 13.5 17.625H14.9C15.285 17.625 15.6 17.3156 15.6 16.9375V15.5625C15.6 15.1844 15.285 14.875 14.9 14.875H13.5ZM21.2 19.6875C21.2 19.3094 20.885 19 20.5 19H19.1C18.715 19 18.4 19.3094 18.4 19.6875V21.0625C18.4 21.4406 18.715 21.75 19.1 21.75H20.5C20.885 21.75 21.2 21.4406 21.2 21.0625V19.6875ZM14.9 21.75C15.285 21.75 15.6 21.4406 15.6 21.0625V19.6875C15.6 19.3094 15.285 19 14.9 19H13.5C13.1133 19 12.8 19.3094 12.8 19.6875V21.0625C12.8 21.4406 13.1133 21.75 13.5 21.75H14.9ZM28.2 19.6875C28.2 19.3094 27.885 19 27.5 19H26.1C25.715 19 25.4 19.3094 25.4 19.6875V21.0625C25.4 21.4406 25.715 21.75 26.1 21.75H27.5C27.885 21.75 28.2 21.4406 28.2 21.0625V19.6875ZM26.1 10.75C25.715 10.75 25.4 11.0577 25.4 11.4375V12.8125C25.4 13.1906 25.715 13.5 26.1 13.5H27.5C27.885 13.5 28.2 13.1906 28.2 12.8125V11.4375C28.2 11.0577 27.885 10.75 27.5 10.75H26.1ZM28.2 15.5625C28.2 15.1844 27.885 14.875 27.5 14.875H26.1C25.715 14.875 25.4 15.1844 25.4 15.5625V16.9375C25.4 17.3156 25.715 17.625 26.1 17.625H27.5C27.885 17.625 28.2 17.3156 28.2 16.9375V15.5625Z" fill="white"/>
</g>
<defs>
<clipPath id="clip0_88_12">
<rect width="28" height="22" fill="white" transform="translate(10 8)"/>
</clipPath>
</defs>
</svg>
