<svg width="48" height="38" viewBox="0 0 48 38" fill="none" xmlns="http://www.w3.org/2000/svg">
<ellipse cx="24" cy="19" rx="24" ry="19" fill="#AD0000"/>
<g clip-path="url(#clip0_88_14)">
<path d="M18.4 10.0625C18.4 8.9234 19.3406 8 20.5 8H27.5C28.6594 8 29.6 8.9234 29.6 10.0625V30H26.1V26.5625C26.1 25.4238 25.1594 24.5 24 24.5C22.8406 24.5 21.9 25.4238 21.9 26.5625V30H18.4V10.0625ZM23.65 10.75C23.265 10.75 22.95 11.0577 22.95 11.4375V12.4688H21.9C21.515 12.4688 21.2 12.7781 21.2 13.1562V13.8438C21.2 14.2219 21.515 14.5312 21.9 14.5312H22.95V15.5625C22.95 15.9406 23.265 16.25 23.65 16.25H24.35C24.735 16.25 25.05 15.9406 25.05 15.5625V14.5312H26.1C26.485 14.5312 26.8 14.2219 26.8 13.8438V13.1562C26.8 12.7781 26.485 12.4688 26.1 12.4688H25.05V11.4375C25.05 11.0577 24.735 10.75 24.35 10.75H23.65ZM17 12.125V30H12.1C10.9402 30 10 29.0762 10 27.9375V21.75H13.5C13.8867 21.75 14.2 21.4406 14.2 21.0625C14.2 20.6844 13.8867 20.375 13.5 20.375H10V17.625H13.5C13.8867 17.625 14.2 17.3156 14.2 16.9375C14.2 16.5594 13.8867 16.25 13.5 16.25H10V14.1875C10 13.0488 10.9402 12.125 12.1 12.125H17ZM35.9 12.125C37.0594 12.125 38 13.0488 38 14.1875V16.25H34.5C34.115 16.25 33.8 16.5594 33.8 16.9375C33.8 17.3156 34.115 17.625 34.5 17.625H38V20.375H34.5C34.115 20.375 33.8 20.6844 33.8 21.0625C33.8 21.4406 34.115 21.75 34.5 21.75H38V27.9375C38 29.0762 37.0594 30 35.9 30H31V12.125H35.9Z" fill="white"/>
</g>
<defs>
<clipPath id="clip0_88_14">
<rect width="28" height="22" fill="white" transform="translate(10 8)"/>
</clipPath>
</defs>
</svg>
