<svg width="34" height="40" viewBox="0 0 34 40" fill="none" xmlns="http://www.w3.org/2000/svg">
<path d="M14.5391 39.0222C10.0296 34.0037 0 21.8405 0 15.0085C0 6.71945 7.42591 0 16.5865 0C25.7436 0 33.173 6.71945 33.173 15.0085C33.173 21.8405 23.0656 34.0037 18.6339 39.0222C17.5713 40.2182 15.6017 40.2182 14.5391 39.0222ZM16.5865 20.0114C19.636 20.0114 22.1153 17.7679 22.1153 15.0085C22.1153 12.2492 19.636 10.0057 16.5865 10.0057C13.537 10.0057 11.0577 12.2492 11.0577 15.0085C11.0577 17.7679 13.537 20.0114 16.5865 20.0114Z" fill="white"/>
</svg>
