<svg width="48" height="38" viewBox="0 0 48 38" fill="none" xmlns="http://www.w3.org/2000/svg">
<ellipse cx="24" cy="19" rx="24" ry="19" fill="#012200"/>
<path d="M24.1157 30V29.5217C24.1157 29.3883 24.1672 29.275 24.2729 29.1818C24.3786 29.0887 24.5072 29.0434 24.6586 29.0434H25.2016V22.8152C24.7158 23.1399 24.1729 23.3036 23.5728 23.3036C22.9127 23.3036 22.3355 23.1198 21.8355 22.7497C21.3354 22.3797 21.0297 21.9165 20.9125 21.3626C20.8897 21.3626 20.8611 21.3651 20.8211 21.3677C20.7811 21.3702 20.7468 21.3727 20.7182 21.3727C19.841 21.3475 19.1009 21.058 18.4923 20.5067C17.8837 19.9554 17.5808 19.2933 17.5808 18.5229C17.5808 18.0195 17.7208 17.5537 17.998 17.1258C18.2751 16.6978 18.6523 16.3529 19.1209 16.0936C18.8323 15.648 18.6866 15.1823 18.6866 14.6964C18.6866 13.9059 19.0038 13.2287 19.641 12.6674C20.2782 12.106 21.044 11.8265 21.9441 11.8265C21.9441 11.1317 22.1384 10.4898 22.5241 9.90319C22.9127 9.31663 23.4385 8.85342 24.1043 8.51104C24.7701 8.16867 25.4987 8 26.2874 8C27.3303 8 28.2504 8.28951 29.0448 8.87104C29.842 9.45257 30.3392 10.1851 30.5421 11.0713C30.9336 10.9379 31.325 10.8699 31.7136 10.8699C32.1565 10.8699 32.5766 10.9454 32.9795 11.099C33.3824 11.2525 33.7281 11.4565 34.0167 11.7107C34.3053 11.965 34.5368 12.2696 34.7111 12.6246C34.8854 12.9795 34.9711 13.3496 34.9711 13.7398C34.9711 14.2307 34.8254 14.6989 34.5368 15.147C34.9997 15.4089 35.3683 15.7512 35.6455 16.1742C35.9198 16.5971 36.0569 17.0628 36.0569 17.5663C36.0569 18.3568 35.7398 19.034 35.1026 19.5954C34.4654 20.1568 33.6996 20.4362 32.7995 20.4362H32.7709C32.7709 20.4362 32.7623 20.4337 32.7452 20.4261C32.7823 20.5847 32.7995 20.7484 32.7995 20.9145C32.7995 21.5766 32.5366 22.143 32.008 22.6088C31.4793 23.0745 30.8393 23.3036 30.0878 23.3036C29.4877 23.3036 28.9448 23.1399 28.459 22.8152V29.0434H29.0019C29.1534 29.0434 29.282 29.0887 29.3877 29.1818C29.4934 29.275 29.5449 29.3883 29.5449 29.5217V30H24.1157ZM16.515 10.8674C16.4778 10.8296 16.4235 10.7868 16.3464 10.739C16.2692 10.6912 16.1835 10.6408 16.0863 10.5905C15.9892 10.5401 15.8863 10.4872 15.7834 10.4369C15.6777 10.3865 15.5749 10.3387 15.4748 10.2934C15.3748 10.2481 15.2834 10.2078 15.2034 10.17C15.1234 10.1323 15.0577 10.1021 15.0091 10.0845L14.9319 10.0568C14.9034 10.0442 14.8891 10.0215 14.8891 9.98879V9.96109C14.8891 9.92837 14.9062 9.91326 14.9434 9.91326C15.0377 9.92585 15.1577 9.94599 15.3005 9.97117C15.4434 9.99634 15.6634 10.0517 15.952 10.1348C16.2406 10.2179 16.4292 10.3035 16.5178 10.3941C16.5692 10.3437 16.6578 10.2909 16.7835 10.2355C16.9093 10.1801 17.0464 10.1348 17.1893 10.097C17.335 10.0593 17.475 10.0265 17.6122 9.99634C17.7494 9.96865 17.8608 9.94599 17.9494 9.9334L18.0894 9.91326C18.1265 9.91326 18.1437 9.92837 18.1437 9.96109V9.98879C18.1437 10.0215 18.1294 10.0442 18.1008 10.0568C17.2379 10.4042 16.7093 10.6761 16.515 10.8674ZM13.2575 13.7373C13.0975 13.5787 12.7574 13.3622 12.2317 13.0928C11.7059 12.8209 11.2201 12.5918 10.7715 12.4005L10.0972 12.1135C10.0314 12.0808 10 12.033 10 11.97V11.9222C10 11.8593 10.0371 11.8265 10.1086 11.8265C10.18 11.8391 10.2743 11.8542 10.3915 11.8693C10.5086 11.8844 10.7201 11.9247 11.0315 11.9851C11.343 12.0455 11.6316 12.111 11.8945 12.1815C12.1574 12.252 12.4231 12.3401 12.686 12.4483C12.9489 12.5566 13.1403 12.6674 13.2546 12.7832C13.4146 12.612 13.7547 12.4458 14.2804 12.2847C14.8062 12.1261 15.2891 12.0103 15.7292 11.9398L16.4035 11.824C16.4749 11.824 16.5121 11.8567 16.5121 11.9197V11.9675C16.5121 12.0304 16.4807 12.0783 16.4149 12.111C16.2263 12.1865 15.9835 12.2897 15.6863 12.4181C15.3891 12.5465 14.9548 12.7555 14.3776 13.045C13.8061 13.3345 13.4318 13.5661 13.2575 13.7373ZM31.1736 30V29.5217C31.1736 29.3883 31.225 29.275 31.3307 29.1818C31.4365 29.0887 31.5651 29.0434 31.7165 29.0434V25.6851C31.3908 25.8764 31.0279 25.9721 30.6307 25.9721C30.3907 25.9721 30.1392 25.9217 29.8706 25.8185V24.5371C29.9506 24.5447 30.022 24.5472 30.0878 24.5472C30.7621 24.5472 31.3908 24.4138 31.9765 24.1444C32.5623 23.8776 33.0452 23.5125 33.4252 23.0493C33.8053 22.5861 34.0482 22.07 34.1568 21.4961C35.1711 21.2292 35.9884 20.7056 36.6113 19.9277C37.0313 20.1064 37.3685 20.3682 37.62 20.7156C37.8743 21.063 38 21.4482 38 21.8686C38 22.2588 37.8943 22.6163 37.68 22.9436C37.4657 23.2709 37.1799 23.5352 36.817 23.7315C36.8827 23.9153 36.9142 24.0915 36.9142 24.2577C36.9142 24.7285 36.7256 25.1338 36.3455 25.4686C35.9655 25.8034 35.5083 25.9696 34.9711 25.9696C34.5739 25.9696 34.211 25.8739 33.8853 25.6826V29.0434C33.9853 29.0434 34.0796 29.0635 34.1625 29.1063C34.2453 29.1466 34.3111 29.2045 34.3568 29.2775C34.4025 29.3505 34.4282 29.4311 34.4282 29.5217V30H31.1736ZM12.1717 30V28.0867C11.8745 28.0867 11.6202 27.9936 11.4059 27.8048C11.1916 27.616 11.0858 27.3919 11.0858 27.1301C11.0858 26.8683 11.1916 26.6442 11.4059 26.4554C11.6202 26.2666 11.8745 26.1735 12.1717 26.1735H21.9441C22.2412 26.1735 22.4956 26.2666 22.7099 26.4554C22.9242 26.6442 23.0299 26.8683 23.0299 27.1301C23.0299 27.3919 22.9242 27.616 22.7099 27.8048C22.4956 27.9936 22.2412 28.0867 21.9441 28.0867V30H19.7724V28.0867H14.3433V30H12.1717Z" fill="white"/>
</svg>
