<svg width="48" height="38" viewBox="0 0 48 38" fill="none" xmlns="http://www.w3.org/2000/svg">
<ellipse cx="24" cy="19" rx="24" ry="19" fill="#001549"/>
<path d="M37.2606 13.8824L24.8925 9.53396C24.2918 9.32299 23.6369 9.32299 23.0362 9.53396L10.7022 13.8824C10.2817 14.0328 10 14.4281 10 14.875C10 15.3219 10.2817 15.7193 10.7022 15.8671L13.3281 16.7914C12.8079 17.4703 12.4417 18.2592 12.254 19.1096C11.7522 19.3179 11.4 19.8078 11.4 20.375C11.4 20.8026 11.6106 21.1695 11.9224 21.4217L10.8361 27.824C10.7648 28.2426 11.0937 28.625 11.5264 28.625H14.0736C14.5061 28.625 14.8352 28.2435 14.7639 27.8245L13.6776 21.4221C13.9896 21.1699 14.2 20.766 14.2 20.375C14.2 19.9328 13.9736 19.5573 13.6435 19.3055C13.8295 18.5424 14.207 17.8523 14.7346 17.2847L23.0734 20.2164C23.6741 20.4274 24.329 20.4274 24.9297 20.2164L37.2978 15.868C37.72 15.7172 38 15.3219 38 14.875C38 14.4281 37.72 14.0328 37.2606 13.8824ZM25.3606 21.5094C24.9494 21.6683 24.4769 21.75 24 21.75C23.5223 21.75 23.0511 21.6698 22.6 21.5113L16.2475 19.2793L15.6 25.4152C15.6 27.1898 19.3231 28.625 24 28.625C28.5981 28.625 32.4 27.1898 32.4 25.4165L31.7534 19.2763L25.3606 21.5094Z" fill="white"/>
</svg>
